<svg xmlns="http://www.w3.org/2000/svg" xmlns:xlink="http://www.w3.org/1999/xlink" width="68" height="68" viewBox="0 0 68 68">
    <defs>
        <circle id="b" cx="30" cy="30" r="30"/>
        <filter id="a" width="123.3%" height="123.3%" x="-11.7%" y="-8.3%" filterUnits="objectBoundingBox">
            <feOffset dy="2" in="SourceAlpha" result="shadowOffsetOuter1"/>
            <feGaussianBlur in="shadowOffsetOuter1" result="shadowBlurOuter1" stdDeviation="2"/>
            <feColorMatrix in="shadowBlurOuter1" values="0 0 0 0 0 0 0 0 0 0 0 0 0 0 0 0 0 0 0.4 0"/>
        </filter>
        <circle id="c" cx="30" cy="30" r="30"/>
        <path id="e" d="M0 .146v56.903h53.879V.146z"/>
        <linearGradient id="f" x1="84.683%" x2="14.926%" y1="76.331%" y2="0%">
            <stop offset="0%" stop-color="#FFF"/>
            <stop offset="100%" stop-color="#D8D8D8"/>
        </linearGradient>
        <linearGradient id="h" x1="17.174%" x2="74.417%" y1="58.825%" y2="15.159%">
            <stop offset="0%" stop-color="#EA8B63"/>
            <stop offset="100%" stop-color="#E20606"/>
        </linearGradient>
        <path id="i" d="M0 37.948V.144h25.945v37.804z"/>
    </defs>
    <g fill="none" fill-rule="evenodd">
        <g transform="translate(4 2)">
            <use fill="#000" filter="url(#a)" xlink:href="#b"/>
            <use fill="#FFF" xlink:href="#b"/>
        </g>
        <g transform="translate(4 2)">
            <mask id="d" fill="#fff">
                <use xlink:href="#c"/>
            </mask>
            <use fill="#FFF" xlink:href="#c"/>
            <g mask="url(#d)">
                <g transform="translate(12 15)">
                    <mask id="g" fill="#fff">
                        <use xlink:href="#e"/>
                    </mask>
                    <path fill="url(#f)" d="M53.207 20.348a1.954 1.954 0 0 0-.185-.186 1.993 1.993 0 0 0-.186-.185 1.993 1.993 0 0 0-.185-.186 1.974 1.974 0 0 0-.186-.185 1.932 1.932 0 0 0-.186-.185 1.954 1.954 0 0 0-.185-.186 1.995 1.995 0 0 0-.186-.185 1.973 1.973 0 0 0-.185-.186 1.952 1.952 0 0 0-.186-.185 1.974 1.974 0 0 0-.185-.186 2.014 2.014 0 0 0-.186-.185 2.014 2.014 0 0 0-.185-.185 1.974 1.974 0 0 0-.186-.186 1.952 1.952 0 0 0-.185-.185 1.995 1.995 0 0 0-.186-.186 1.995 1.995 0 0 0-.185-.185 1.952 1.952 0 0 0-.186-.185 1.952 1.952 0 0 0-.185-.186 1.954 1.954 0 0 0-.186-.185 1.954 1.954 0 0 0-.185-.186 1.974 1.974 0 0 0-.186-.185 1.974 1.974 0 0 0-.186-.185 1.973 1.973 0 0 0-.185-.186 1.973 1.973 0 0 0-.186-.185 1.976 1.976 0 0 0-.185-.186 1.973 1.973 0 0 0-.186-.185 1.973 1.973 0 0 0-.185-.185 1.952 1.952 0 0 0-.186-.186 1.952 1.952 0 0 0-.185-.185 1.995 1.995 0 0 0-.186-.186 1.974 1.974 0 0 0-.185-.185 1.952 1.952 0 0 0-.186-.185 1.973 1.973 0 0 0-.185-.186 1.976 1.976 0 0 0-.186-.185 1.952 1.952 0 0 0-.185-.186 1.932 1.932 0 0 0-.186-.185 1.932 1.932 0 0 0-.185-.185 1.952 1.952 0 0 0-.186-.186 1.956 1.956 0 0 0-.186-.185 1.954 1.954 0 0 0-.185-.186 1.993 1.993 0 0 0-.186-.185 2.014 2.014 0 0 0-.185-.186 1.974 1.974 0 0 0-.186-.185 1.932 1.932 0 0 0-.185-.185 1.954 1.954 0 0 0-.186-.186 1.993 1.993 0 0 0-.185-.185 2.014 2.014 0 0 0-.186-.186 1.974 1.974 0 0 0-.185-.185 1.974 1.974 0 0 0-.186-.186 2.014 2.014 0 0 0-.185-.185 2.036 2.036 0 0 0-.186-.185 1.974 1.974 0 0 0-.185-.186 1.952 1.952 0 0 0-.186-.185 1.974 1.974 0 0 0-.185-.186 2.014 2.014 0 0 0-.186-.185 1.993 1.993 0 0 0-.185-.185 1.974 1.974 0 0 0-.186-.186 1.936 1.936 0 0 0-.186-.185 1.952 1.952 0 0 0-.185-.186 1.974 1.974 0 0 0-.186-.185 1.974 1.974 0 0 0-.185-.186 1.973 1.973 0 0 0-.186-.185 1.952 1.952 0 0 0-.185-.185 1.995 1.995 0 0 0-.186-.186 2.014 2.014 0 0 0-.185-.185 1.995 1.995 0 0 0-.186-.186 1.952 1.952 0 0 0-.185-.185 1.952 1.952 0 0 0-.186-.185 1.976 1.976 0 0 0-.186-.186 1.952 1.952 0 0 0-.185-.185 1.952 1.952 0 0 0-.185-.186 1.932 1.932 0 0 0-.186-.185 1.976 1.976 0 0 0-.186-.185 1.973 1.973 0 0 0-.185-.186 1.932 1.932 0 0 0-.186-.185 1.952 1.952 0 0 0-.185-.186 1.973 1.973 0 0 0-.186-.185 1.956 1.956 0 0 0-.185-.185 1.954 1.954 0 0 0-.186-.186 1.973 1.973 0 0 0-.185-.185 1.973 1.973 0 0 0-.186-.186 1.974 1.974 0 0 0-.185-.185 1.932 1.932 0 0 0-.186-.185 1.932 1.932 0 0 0-.185-.186 1.954 1.954 0 0 0-.186-.185 2.014 2.014 0 0 0-.185-.186 2.014 2.014 0 0 0-.186-.185 1.997 1.997 0 0 0-.185-.186 2.014 2.014 0 0 0-.186-.185 1.993 1.993 0 0 0-.185-.185 1.974 1.974 0 0 0-.186-.186 1.974 1.974 0 0 0-.186-.185 1.97 1.97 0 0 0-.185-.185 2.016 2.016 0 0 0-.186-.186 1.974 1.974 0 0 0-.185-.185 1.952 1.952 0 0 0-.186-.186 1.956 1.956 0 0 0-.185-.185 1.952 1.952 0 0 0-.186-.186 1.952 1.952 0 0 0-.185-.185 1.956 1.956 0 0 0-.186-.186 1.956 1.956 0 0 0-1.476-.67h-5a1.961 1.961 0 0 0-1.961 1.96v.175l-.143-.019v-.16s-.066-.01-.186-.025v-.161l-.185-.025v-.16s-.066-.01-.186-.025v-.16s-.065-.01-.185-.025V2.35l-.186-.025v-.16S12.583.517 9.836.174c-2.746-.343-4.943 2.47-4.6 4.253 0 0-4.42 1.657-2.059 5.352 0 0-4.37 1.676-1.794 6.286 0 0-2.05 1.741-1.158 4.074.344.9.802 1.583 1.335 2.078.061.064.123.127.186.185.061.064.122.127.186.186.06.064.122.127.185.185.061.064.122.127.186.186.06.064.122.126.185.185.061.064.122.127.186.185.06.064.122.127.185.186.061.064.122.127.186.185.06.064.122.127.185.186a4.4 4.4 0 0 0 .186.185c.06.064.122.127.185.185a4.3 4.3 0 0 0 .186.186c.06.064.122.127.185.185.061.064.123.127.186.186.06.064.122.127.185.185.061.064.123.127.186.185.06.064.122.127.185.186.061.064.123.127.186.185.06.064.122.127.186.186.06.064.122.127.185.185.061.064.122.127.186.186.06.064.122.126.185.185.061.064.122.127.186.185.06.064.122.127.185.186a4.4 4.4 0 0 0 .186.185 4.4 4.4 0 0 0 .185.186c.061.064.123.126.186.185a4.3 4.3 0 0 0 .185.185c.061.064.123.127.186.186.06.064.122.127.185.185.061.064.123.127.186.186.06.064.122.127.185.185.061.064.123.127.186.185.06.064.122.127.185.186.061.064.123.127.186.185.06.064.122.127.185.186.061.064.123.127.186.185.061.064.122.127.186.186.06.064.122.126.185.185.061.064.122.127.186.185.06.064.122.127.185.186.061.064.122.127.186.185.06.064.122.127.185.186.061.064.123.127.186.185.06.064.122.127.185.185.061.064.123.127.186.186.06.064.122.127.185.185.061.064.123.127.186.186.06.064.122.126.185.185.056.059.113.118.17.172-.032.51-.023.973.045 1.358.278 1.574.87 3.554 2.048 4.654.06.065.122.126.186.186.06.064.122.126.186.185.06.065.122.126.185.186.06.064.122.126.185.185.06.064.123.126.186.186.06.064.122.125.186.185.06.064.121.126.185.185.06.065.122.126.186.186.06.064.122.126.185.185.06.064.122.126.186.185.06.065.122.126.185.186.06.064.122.126.186.185.06.065.122.126.185.186.06.064.122.126.186.185.06.064.122.126.185.186.06.064.122.126.186.185.06.064.122.126.185.185.06.065.122.127.186.186.06.064.122.126.185.185.06.064.122.126.186.186.06.064.122.126.186.185.06.064.121.126.185.185.06.065.122.127.186.186.06.064.122.126.185.185.06.064.122.126.186.186.06.064.122.126.185.185.06.064.122.126.186.186.06.064.122.126.185.185.06.064.122.126.186.185.06.065.122.126.185.186.06.064.122.126.186.185.06.064.122.126.185.186.06.064.122.126.186.185.06.064.122.126.185.185.06.065.122.127.186.186.06.064.122.126.185.185.06.064.122.126.186.186.06.064.122.126.186.185.06.064.122.126.185.185.06.065.122.126.185.186.06.064.123.126.186.185.06.065.122.126.186.186.06.064.122.126.185.185.06.064.122.126.186.186.06.064.122.126.185.185.06.064.122.126.186.185.06.065.122.126.185.186.06.064.122.126.186.185.06.064.122.126.185.185.06.065.122.127.186.186.06.064.122.126.185.185.06.065.122.126.186.186.06.064.122.126.185.185.06.064.123.126.186.186.06.064.122.126.185.185.06.064.123.126.186.185.06.065.122.127.186.186.06.064.121.126.185.185.06.064.122.126.186.186.06.064.122.126.185.185.06.064.122.126.186.185.06.065.122.127.185.186.06.064.122.126.186.185.06.065.122.126.185.186.06.064.122.126.186.185.06.064.122.126.185.186.06.064.122.126.186.185.06.064.122.126.185.185.06.065.123.126.186.186.06.064.122.126.185.185.06.064.122.126.186.186.06.064.122.126.186.185.06.064.121.126.185.185.06.065.122.127.186.186.06.064.122.126.185.185.06.064.122.126.186.186.06.064.122.126.185.185.06.064.122.126.186.185.06.065.122.126.185.186.06.064.122.126.186.185.06.065.122.126.185.186.06.064.122.126.186.185.06.064.122.126.185.186.06.064.122.126.186.185.06.064.122.126.185.185.06.065.122.126.186.186.06.064.122.126.186.185.06.064.121.126.185.185.06.065.122.127.186.186.06.064.122.126.185.185.06.065.122.126.185.186.06.064.123.126.186.185.06.065.122.126.186.185.06.065.122.127.185.186.06.064.122.126.186.185.06.065.122.127.185.186.06.064.122.126.186.185.06.064.122.126.185.186.06.064.122.126.186.185.06.064.122.126.185.185.597.638 1.358 1.045 2.326 1.02 2.677-.068 2.835-2.094 2.746-5.489-.069-2.607 2.617-7.133 3.57-8.233 1.472-1.7 3.776-3.773 3.776-4.46v-1.74c.023.023.048.044.072.066.058.066.12.128.186.185.057.066.12.128.185.186.058.066.12.128.186.185.058.066.12.128.185.186.058.066.12.127.186.185.058.066.12.128.185.185.058.066.12.128.186.186.058.066.12.128.185.185.36.411.887.672 1.476.672h5a1.961 1.961 0 0 0 1.962-1.961V21.822c0-.588-.26-1.115-.672-1.474" mask="url(#g)"/>
                </g>
                <path fill="url(#h)" d="M28.174.65h4.902C34.14.65 35 1.512 35 2.574v15.255a1.923 1.923 0 0 1-1.924 1.921h-4.902a1.923 1.923 0 0 1-1.924-1.921V2.573c0-1.062.861-1.922 1.924-1.922zM25.4 19.903c0 .683-2.326 2.747-3.814 4.439-.963 1.095-3.675 5.6-3.606 8.195.09 3.379-.07 5.395-2.774 5.463-2.704.068-3.814-3.141-4.23-5.463-.416-2.322 1.318-7.513 1.715-8.673.398-1.161.088-1.708-.605-1.64-.694.069-5.687.615-7.49.752-1.803.136-3.467-.752-4.369-3.073-.901-2.322 1.17-4.055 1.17-4.055-2.602-4.589 1.812-6.258 1.812-6.258C.824 5.911 5.29 4.263 5.29 4.263 4.944 2.487 7.163-.313 9.937.029 12.71.369 25.4 2.009 25.4 2.009v17.893z" transform="translate(12 15)"/>
            </g>
        </g>
    </g>
</svg>
