<svg xmlns="http://www.w3.org/2000/svg" xmlns:xlink="http://www.w3.org/1999/xlink" width="68" height="68" viewBox="0 0 68 68">
    <defs>
        <circle id="b" cx="30" cy="30" r="30"/>
        <filter id="a" width="123.3%" height="123.3%" x="-11.7%" y="-8.3%" filterUnits="objectBoundingBox">
            <feOffset dy="2" in="SourceAlpha" result="shadowOffsetOuter1"/>
            <feGaussianBlur in="shadowOffsetOuter1" result="shadowBlurOuter1" stdDeviation="2"/>
            <feColorMatrix in="shadowBlurOuter1" values="0 0 0 0 0 0 0 0 0 0 0 0 0 0 0 0 0 0 0.4 0"/>
        </filter>
        <circle id="c" cx="30" cy="30" r="30"/>
        <linearGradient id="e" x1="19.271%" x2="70.598%" y1="21.029%" y2="72.899%">
            <stop offset="0%" stop-color="#A2A2A2"/>
            <stop offset="100%" stop-color="#A6A6A6" stop-opacity="0"/>
        </linearGradient>
        <linearGradient id="f" x1="0%" x2="81.594%" y1="79.471%" y2="31.328%">
            <stop offset="0%" stop-color="#63D9EA"/>
            <stop offset="100%" stop-color="#066EE2"/>
        </linearGradient>
    </defs>
    <g fill="none" fill-rule="evenodd">
        <g transform="translate(4 2)">
            <use fill="#000" filter="url(#a)" xlink:href="#b"/>
            <use fill="#FFF" xlink:href="#b"/>
        </g>
        <g transform="translate(4 2)">
            <mask id="d" fill="#fff">
                <use xlink:href="#c"/>
            </mask>
            <use fill="#FFF" xlink:href="#c"/>
            <g mask="url(#d)">
                <path fill="url(#e)" d="M50.5 39.916c2.488 4.515-1.733 6.156-1.733 6.156 2.281 3.619-1.99 5.24-1.99 5.24.332 1.748-1.79 4.502-4.444 4.166-2.652-.336-14.79-1.948-14.79-1.948v-.156l-.176-.024v-.155l-.178-.024v-.156l-.177-.023v-.156l-.177-.024v-.156l-.177-.023v-.156l-.148-.02v.16c0 1.06-.849 1.92-1.896 1.92h-4.83a1.879 1.879 0 0 1-1.424-.656 1.894 1.894 0 0 1-.177-.18 1.933 1.933 0 0 1-.177-.178 1.894 1.894 0 0 1-.177-.18 1.937 1.937 0 0 1-.178-.18 1.978 1.978 0 0 1-.177-.179 1.915 1.915 0 0 1-.177-.18 1.915 1.915 0 0 1-.177-.179 1.954 1.954 0 0 1-.177-.179 1.915 1.915 0 0 1-.177-.18 1.915 1.915 0 0 1-.177-.179 1.937 1.937 0 0 1-.178-.18 1.915 1.915 0 0 1-.177-.179 1.915 1.915 0 0 1-.177-.18 1.977 1.977 0 0 1-.177-.179 1.937 1.937 0 0 1-.177-.18 1.913 1.913 0 0 1-.177-.179 1.935 1.935 0 0 1-.177-.179 1.915 1.915 0 0 1-.177-.18 1.935 1.935 0 0 1-.177-.179 1.958 1.958 0 0 1-.178-.18 1.915 1.915 0 0 1-.177-.179 1.913 1.913 0 0 1-.177-.18 1.935 1.935 0 0 1-.177-.178 1.915 1.915 0 0 1-.177-.18 1.894 1.894 0 0 1-.177-.18 1.935 1.935 0 0 1-.177-.179 1.937 1.937 0 0 1-.177-.18 1.913 1.913 0 0 1-.177-.179 1.939 1.939 0 0 1-.178-.18 1.893 1.893 0 0 1-.177-.179 1.875 1.875 0 0 1-.177-.179 1.935 1.935 0 0 1-.177-.18 1.915 1.915 0 0 1-.177-.179 1.913 1.913 0 0 1-.177-.18 1.915 1.915 0 0 1-.177-.178 1.898 1.898 0 0 1-.177-.18 1.893 1.893 0 0 1-.178-.18 1.915 1.915 0 0 1-.177-.179 1.935 1.935 0 0 1-.177-.18 1.913 1.913 0 0 1-.177-.179 1.918 1.918 0 0 1-.177-.18 1.933 1.933 0 0 1-.177-.179 1.915 1.915 0 0 1-.177-.179 1.915 1.915 0 0 1-.177-.18 1.915 1.915 0 0 1-.177-.179 1.896 1.896 0 0 1-.178-.18 1.915 1.915 0 0 1-.177-.179 1.915 1.915 0 0 1-.177-.18 1.913 1.913 0 0 1-.177-.179 1.894 1.894 0 0 1-.177-.179 1.937 1.937 0 0 1-.177-.18 1.935 1.935 0 0 1-.177-.179 1.915 1.915 0 0 1-.178-.18 1.898 1.898 0 0 1-.177-.179 1.91 1.91 0 0 1-.177-.18 1.918 1.918 0 0 1-.177-.179 1.915 1.915 0 0 1-.177-.18 1.913 1.913 0 0 1-.177-.178 1.915 1.915 0 0 1-.177-.18 1.894 1.894 0 0 1-.177-.18 1.916 1.916 0 0 1-.177-.179 1.894 1.894 0 0 1-.178-.18 1.915 1.915 0 0 1-.177-.179 1.913 1.913 0 0 1-.177-.179 1.915 1.915 0 0 1-.177-.18 1.918 1.918 0 0 1-.177-.179 1.91 1.91 0 0 1-.177-.18 1.898 1.898 0 0 1-.177-.179 1.915 1.915 0 0 1-.177-.18 1.916 1.916 0 0 1-.178-.179 1.894 1.894 0 0 1-.177-.179 1.915 1.915 0 0 1-.177-.18 1.913 1.913 0 0 1-.177-.179 1.915 1.915 0 0 1-.177-.18 1.915 1.915 0 0 1-.177-.179 1.896 1.896 0 0 1-.177-.18 1.915 1.915 0 0 1-.177-.179 1.915 1.915 0 0 1-.177-.18 1.935 1.935 0 0 1-.178-.178 1.933 1.933 0 0 1-.177-.18 1.918 1.918 0 0 1-.177-.18 1.931 1.931 0 0 1-.177-.179 1.916 1.916 0 0 1-.177-.18 1.915 1.915 0 0 1-.177-.179 1.913 1.913 0 0 1-.177-.179 1.918 1.918 0 0 1-.178-.18 1.935 1.935 0 0 1-.177-.179 1.893 1.893 0 0 1-.177-.18 1.915 1.915 0 0 1-.177-.179 1.915 1.915 0 0 1-.177-.18 1.933 1.933 0 0 1-.177-.178 1.896 1.896 0 0 1-.177-.18 1.877 1.877 0 0 1-.177-.18 1.893 1.893 0 0 1-.177-.179 1.918 1.918 0 0 1-.178-.18 1.913 1.913 0 0 1-.177-.179 1.954 1.954 0 0 1-.177-.179 1.916 1.916 0 0 1-.177-.18 1.915 1.915 0 0 1-.177-.179 1.913 1.913 0 0 1-.177-.18A1.924 1.924 0 0 1 0 34.497V19.255c0-1.06.849-1.92 1.896-1.92h4.83c.568 0 1.076.255 1.424.656.063.056.122.116.177.18.063.056.122.116.177.18.063.055.122.115.177.179.063.055.122.115.177.179.063.056.122.116.177.18.063.055.122.115.177.179.063.056.123.116.178.18.063.055.122.115.177.179.03.026.06.052.088.08v-1.702c0-.672 2.225-2.702 3.647-4.367.921-1.077 3.515-5.51 3.45-8.062C16.664 2.05 16.816.068 19.403 0c.934-.024 1.668.373 2.245.997.06.058.12.118.177.18.061.057.12.117.178.18.06.057.12.117.177.179.06.057.12.117.177.18.06.057.12.116.177.179.06.057.12.117.177.179.06.057.12.117.177.18.06.057.12.117.177.179.06.057.12.117.177.18.06.057.12.117.177.179.061.057.12.117.178.18.06.057.12.116.177.178.06.058.12.118.177.18.06.057.12.117.177.18.06.057.12.117.177.179.06.057.12.117.177.18.06.057.12.116.177.179.061.057.12.117.177.18.061.057.12.116.177.179.061.057.12.117.178.179.06.057.12.117.177.18.06.057.12.117.177.179.06.057.12.117.177.18.06.057.12.116.177.179.06.057.12.117.177.179.06.057.12.117.177.18.061.057.12.117.178.179.06.057.12.117.177.18.06.057.12.117.177.179.06.057.12.117.177.18.06.057.12.117.177.179.06.057.12.117.177.18.06.056.12.116.177.178.06.058.12.118.177.18.061.057.12.117.177.18.061.057.12.117.178.179.06.057.12.117.177.18.06.057.12.117.177.179.06.057.12.117.177.18.06.056.12.116.177.178.06.058.12.118.177.18.06.057.12.117.177.18.06.057.12.117.177.179.061.057.12.117.178.18.06.057.12.116.177.179.06.057.12.117.177.179.06.058.12.117.177.18.06.057.12.117.177.179.06.057.12.117.177.18.06.057.12.117.177.179.06.057.12.117.177.18.06.057.12.116.178.179.06.057.12.117.177.179.06.057.12.117.177.18.06.057.12.117.177.179.06.057.12.117.177.18.06.057.12.116.177.179.06.057.12.117.177.18.06.057.12.116.177.179.061.057.12.117.177.179.061.057.12.117.177.18.061.057.12.117.178.179.06.057.12.117.177.18.06.057.12.117.177.179.06.057.12.117.177.18.06.057.12.116.177.178.06.058.12.118.177.18.06.057.12.117.178.18.06.057.12.117.177.179.06.057.12.117.177.18.06.057.12.117.177.179.06.057.12.117.177.18.06.057.12.116.177.179.06.057.12.117.177.179.06.057.12.117.177.18.06.057.12.117.177.179.06.057.12.117.178.18.06.057.119.116.177.179.06.057.12.117.177.18.06.057.12.116.177.179.06.057.12.117.177.179.06.057.12.117.177.18.06.057.12.117.177.179.06.057.12.117.177.18.061.057.12.116.177.179.061.057.12.117.178.179.06.058.12.117.177.18.06.057.12.117.177.179.06.057.12.117.177.18.06.057.12.117.177.179.06.057.12.117.177.18.06.057.12.116.177.179.06.057.12.117.177.18.061.056.12.116.177.178.061.058.12.118.178.18.06.057.12.117.177.18.06.057.12.117.177.179.06.057.12.117.177.18.06.057.12.116.177.179.06.057.12.117.177.18 1.138 1.077 1.71 3.014 1.978 4.556.065.376.074.83.043 1.328.03.03.06.063.09.096.061.056.12.117.178.179.06.057.119.118.177.18.06.056.12.117.177.179.06.057.12.117.177.18.06.056.12.117.177.179.06.056.12.117.178.18.06.056.119.117.177.179.06.056.119.117.177.18.06.056.119.116.177.178.06.057.119.118.177.18.06.057.119.118.177.18.06.056.12.117.177.179.06.056.12.117.177.18.06.056.12.117.178.179.06.056.118.117.177.18.06.056.119.117.177.178.06.057.119.118.177.18.06.057.119.117.177.18.06.056.119.117.177.179.06.056.119.117.177.18.06.056.12.117.177.178.06.057.12.118.178.18.06.057.118.118.177.18.06.056.119.117.177.179.06.057.119.117.177.18.06.056.119.117.177.179.06.056.119.117.177.18.06.056.12.117.177.179.06.056.12.117.177.179.06.057.12.117.177.18.06.056.12.117.178.179.06.057.119.117.177.18.06.056.119.117.177.179.06.056.119.117.177.179.06.057.119.118.177.18.06.056.12.117.177.179.06.057.12.117.177.18.06.056.12.117.178.179.06.056.118.117.177.18.06.056.118.117.177.179.06.056.119.117.177.18.06.056.119.117.177.179.06.056.119.117.177.179.06.057.119.118.177.18.06.056.12.117.177.179.06.056.12.117.177.18.06.056.12.117.177.179a4 4 0 0 1 .178.18c.06.056.119.117.177.178.06.057.119.118.177.18.515.484.957 1.153 1.29 2.034.862 2.284-1.12 3.99-1.12 3.99" opacity=".536" transform="translate(13 9)"/>
                <path fill="url(#f)" d="M6.7 36.063H1.89A1.887 1.887 0 0 1 0 34.178V19.214c0-1.04.846-1.885 1.889-1.885H6.7c1.043 0 1.889.844 1.889 1.885v14.964A1.887 1.887 0 0 1 6.7 36.063zm2.793-18.44c0-.666 2.153-2.675 3.53-4.323.891-1.066 3.401-5.453 3.337-7.98-.083-3.29.064-5.253 2.567-5.319 2.503-.067 3.53 3.059 3.915 5.32.385 2.26-1.22 7.314-1.587 8.444-.368 1.131-.081 1.663.56 1.596.642-.066 5.263-.598 6.932-.731 1.668-.133 3.208.731 4.043 2.992.834 2.261-1.083 3.948-1.083 3.948 2.408 4.468-1.677 6.093-1.677 6.093 2.208 3.581-1.925 5.186-1.925 5.186.32 1.73-1.733 4.456-4.3 4.123-2.567-.332-14.312-1.928-14.312-1.928V17.622z" transform="translate(13 9)"/>
            </g>
        </g>
    </g>
</svg>
