<svg xmlns="http://www.w3.org/2000/svg" xmlns:xlink="http://www.w3.org/1999/xlink" width="107" height="12" viewBox="0 0 107 12">
    <defs>
        <path id="a" d="M.09.219h7.998V11.52H.09V.22z"/>
        <path id="c" d="M.118 8.727h8.636V.131H.118v8.596z"/>
        <path id="e" d="M5.771 10.636H.088V.005h5.683z"/>
        <path id="g" d="M0 11.727h106.808V.22H0z"/>
    </defs>
    <g fill="none" fill-rule="evenodd">
        <path fill="#066EE2" d="M6.664.273l-4.158 5.03V.273H0v11.302h2.506V8.099l.912-1.067 3.565 4.543h3.09l-4.993-6L9.755.274z"/>
        <g transform="translate(0 .054)">
            <g transform="translate(11.069)">
                <mask id="b" fill="#fff">
                    <use xlink:href="#a"/>
                </mask>
                <path fill="#066EE2" d="M5.315 3.131c-.645 0-1.226.123-1.744.368-.518.246-.932.542-1.243.89V.219H.09V11.52h2.238V5.994c.208-.265.48-.489.82-.67.34-.183.714-.273 1.122-.273.513 0 .904.112 1.174.338.27.227.406.61.406 1.15v4.981h2.238V5.712c0-.816-.232-1.45-.697-1.903-.466-.452-1.157-.678-2.076-.678" mask="url(#b)"/>
            </g>
            <g transform="translate(20.719 3)">
                <mask id="d" fill="#fff">
                    <use xlink:href="#c"/>
                </mask>
                <path fill="#066EE2" d="M6.515 5.881c-.184.27-.456.492-.818.666-.361.174-.729.26-1.102.26-.643 0-1.165-.22-1.567-.661-.402-.441-.603-1.018-.603-1.73 0-.705.201-1.276.603-1.712.402-.436.924-.654 1.567-.654.373 0 .74.09 1.102.27.362.179.634.404.818.674V5.88zm0-4.492C5.832.55 4.957.13 3.89.13c-1.108 0-2.013.388-2.717 1.162C.47 2.068.118 3.11.118 4.417c0 1.34.353 2.394 1.059 3.16.706.767 1.61 1.15 2.712 1.15 1.056 0 1.931-.419 2.626-1.257v1.05h2.239V.338H6.515v1.05z" mask="url(#d)"/>
            </g>
            <path fill="#066EE2" d="M36.929 3.131a4.01 4.01 0 0 0-1.735.368c-.52.246-.934.542-1.244.89V3.338H31.71v8.182h2.239V5.994a2.69 2.69 0 0 1 .826-.675 2.307 2.307 0 0 1 1.11-.268c.506 0 .895.118 1.168.355.272.237.409.626.409 1.167v4.947H39.7V5.745c0-.821-.234-1.463-.701-1.923-.468-.46-1.158-.691-2.071-.691"/>
            <g transform="translate(40.87 1.09)">
                <mask id="f" fill="#fff">
                    <use xlink:href="#e"/>
                </mask>
                <path fill="#066EE2" d="M4.979 8.642c-.15.05-.304.075-.465.075a.69.69 0 0 1-.568-.257c-.138-.17-.207-.389-.207-.653V4.125h1.73V2.247H3.74V.005H1.5v2.242H.088v1.878H1.5v4.252c0 .74.206 1.301.616 1.684.41.383 1.006.575 1.787.575.837 0 1.46-.176 1.868-.53L5.298 8.46a.73.73 0 0 1-.32.182" mask="url(#f)"/>
            </g>
            <path fill="#066EE2" d="M50.11 4.438v-1.1h-2.238v8.182h2.239V6.118c.183-.254.485-.473.904-.658.419-.185.818-.277 1.197-.277.258 0 .465.016.62.05V3.13c-.505 0-1.004.124-1.494.372-.491.248-.9.56-1.227.935"/>
            <mask id="h" fill="#fff">
                <use xlink:href="#g"/>
            </mask>
            <path fill="#066EE2" d="M54.218 11.52h2.239V3.338h-2.239zM64.06 9.146c-.397.441-.916.662-1.559.662-.367 0-.733-.086-1.098-.257-.364-.17-.644-.388-.84-.653V5.994c.196-.276.476-.502.84-.679.365-.176.73-.265 1.098-.265.643 0 1.162.218 1.559.654.396.436.594 1.007.594 1.713 0 .711-.198 1.288-.594 1.729m-.87-6.015a3.39 3.39 0 0 0-1.455.319 3.223 3.223 0 0 0-1.171.939V.219h-2.239V11.52h2.239v-1.05c.694.838 1.57 1.257 2.626 1.257 1.106 0 2.01-.383 2.715-1.15.704-.766 1.056-1.82 1.056-3.16 0-1.308-.352-2.349-1.056-3.124-.705-.774-1.61-1.162-2.715-1.162M74.409 8.881a2.658 2.658 0 0 1-.835.662 2.366 2.366 0 0 1-1.11.265c-.506 0-.894-.116-1.163-.348-.27-.232-.405-.618-.405-1.158V3.338h-2.239v5.808c0 .816.231 1.45.693 1.903.463.452 1.15.678 2.063.678.643 0 1.218-.119 1.726-.356a4.188 4.188 0 0 0 1.27-.885v1.034h2.239V3.338h-2.239V8.88zM82.795 9.733c-.15.05-.304.075-.465.075a.69.69 0 0 1-.568-.257c-.138-.17-.207-.389-.207-.653V5.216h1.731V3.338h-1.73V1.096h-2.24v2.242h-1.411v1.878h1.412v4.252c0 .74.205 1.301.615 1.684.41.383 1.006.575 1.787.575.838 0 1.46-.176 1.868-.53l-.473-1.646a.73.73 0 0 1-.319.182M54.003 1.21h.003c.01.335.137.625.388.866.262.251.573.377.935.377.373 0 .69-.126.951-.377a1.21 1.21 0 0 0 .388-.867h.004V.22h-2.67v.99zM86.773 6.023c.092-.196.218-.381.379-.555.16-.174.373-.313.637-.417.264-.105.563-.158.896-.158.35 0 .663.054.938.161.275.108.492.25.65.427.158.176.28.361.366.554.086.193.138.394.155.604H86.6c.023-.215.08-.42.172-.616m-.155 2.105h6.328v-.504c0-1.335-.391-2.418-1.175-3.248-.783-.83-1.812-1.245-3.086-1.245-.839 0-1.596.192-2.274.575a4.11 4.11 0 0 0-1.575 1.551 4.265 4.265 0 0 0-.56 2.16c0 1.29.43 2.332 1.287 3.123.83.766 1.877 1.158 3.134 1.182V9.945c-.524-.053-.963-.219-1.313-.501a2.033 2.033 0 0 1-.766-1.316M92.946 11.727h13.862V9.911H92.946z" mask="url(#h)"/>
        </g>
    </g>
</svg>
