<svg xmlns="http://www.w3.org/2000/svg" xmlns:xlink="http://www.w3.org/1999/xlink" width="307" height="35" viewBox="0 0 307 35">
    <defs>
        <path id="a" d="M0 35h306.45V.653H0z"/>
    </defs>
    <g fill="none" fill-rule="evenodd">
        <path fill="#FFF" d="M19.184 1L7.213 16.133V1H0v34h7.213V24.546l2.627-3.21L20.102 35H29L14.624 16.954 28.084 1z"/>
        <g>
            <path fill="#FFF" d="M47.007 9.344c2.637 0 4.622.676 5.956 2.025 1.336 1.35 2.003 3.244 2.003 5.68v17.334h-6.423V19.518c0-1.613-.388-2.758-1.164-3.433-.776-.674-1.899-1.011-3.368-1.011-1.172 0-2.245.27-3.22.814-.973.543-1.758 1.21-2.352 2v16.495h-6.423V.653h6.423v12.444c.892-1.036 2.08-1.921 3.566-2.653 1.486-.733 3.153-1.1 5.002-1.1zM78.139 26.506c-.528.807-1.31 1.469-2.347 1.987-1.038.52-2.092.778-3.162.778-1.846 0-3.344-.657-4.497-1.975-1.152-1.316-1.729-3.037-1.729-5.16 0-2.107.577-3.811 1.729-5.111 1.153-1.301 2.651-1.951 4.497-1.951 1.07 0 2.124.267 3.162.801 1.037.536 1.819 1.207 2.347 2.013v8.618zm0-13.409c-1.96-2.502-4.472-3.753-7.535-3.753-3.179 0-5.777 1.158-7.794 3.47-2.018 2.313-3.026 5.42-3.026 9.321 0 4 1.013 7.145 3.038 9.433C64.848 33.856 67.442 35 70.604 35c3.03 0 5.541-1.251 7.535-3.753v3.136h6.422V9.962H78.14v3.135zM105.955 9.344c-1.828 0-3.488.367-4.978 1.1-1.49.732-2.68 1.617-3.57 2.653V9.962h-6.423v24.421h6.423V17.888a7.766 7.766 0 0 1 2.372-2.013c.954-.534 2.017-.801 3.186-.801 1.45 0 2.565.354 3.348 1.061.782.708 1.173 1.869 1.173 3.482v14.766h6.424V17.148c0-2.453-.672-4.366-2.014-5.742-1.342-1.373-3.322-2.062-5.941-2.062M131.548 29.05a4.052 4.052 0 0 1-1.334.221c-.692 0-1.235-.254-1.631-.766-.395-.51-.593-1.16-.593-1.95V15.568h4.966V9.962h-4.966V3.27h-6.422v6.692h-4.052v5.606h4.052v12.69c0 2.207.588 3.882 1.766 5.026C124.51 34.428 126.22 35 128.46 35c2.404 0 4.19-.527 5.36-1.58l-1.358-4.915c-.182.215-.487.396-.914.544M143.776 13.245V9.962h-6.423v24.42h6.423V18.26c.527-.757 1.392-1.411 2.594-1.964 1.202-.55 2.346-.828 3.433-.828.742 0 1.335.05 1.779.15V9.343c-1.449 0-2.878.37-4.286 1.111-1.408.74-2.581 1.671-3.52 2.79"/>
            <mask id="b" fill="#fff">
                <use xlink:href="#a"/>
            </mask>
            <path fill="#FFF" d="M155.56 34.383h6.423V9.962h-6.423zM183.797 27.296c-1.136 1.317-2.627 1.976-4.471 1.976-1.055 0-2.104-.256-3.15-.767-1.046-.51-1.848-1.16-2.409-1.95v-8.667c.56-.822 1.363-1.498 2.41-2.024 1.045-.527 2.094-.79 3.149-.79 1.844 0 3.335.65 4.471 1.95 1.137 1.301 1.705 3.005 1.705 5.111 0 2.125-.568 3.845-1.705 5.16m-2.495-17.951a9.425 9.425 0 0 0-4.175.95c-1.301.636-2.42 1.57-3.36 2.804V.653h-6.422v33.73h6.422v-3.136C175.76 33.75 178.271 35 181.302 35c3.172 0 5.768-1.143 7.789-3.433 2.02-2.287 3.031-5.432 3.031-9.432 0-3.901-1.01-7.008-3.031-9.321-2.02-2.313-4.617-3.47-7.789-3.47M213.491 26.506c-.626.79-1.425 1.448-2.396 1.976a6.587 6.587 0 0 1-3.187.79c-1.45 0-2.56-.347-3.335-1.038-.774-.691-1.16-1.843-1.16-3.456V9.962h-6.424v17.334c0 2.437.663 4.33 1.988 5.68 1.326 1.35 3.298 2.024 5.917 2.024 1.845 0 3.495-.354 4.953-1.061 1.458-.709 2.673-1.59 3.644-2.642v3.086h6.424V9.962h-6.424v16.544zM237.553 29.05a4.052 4.052 0 0 1-1.334.221c-.692 0-1.236-.254-1.631-.766-.395-.51-.593-1.16-.593-1.95V15.568h4.966V9.962h-4.966V3.27h-6.423v6.692h-4.05v5.606h4.05v12.69c0 2.207.59 3.882 1.767 5.026 1.177 1.144 2.886 1.716 5.126 1.716 2.404 0 4.19-.527 5.36-1.58l-1.358-4.915c-.182.215-.487.396-.914.544M154.942 3.61h.01a3.68 3.68 0 0 0 1.114 2.587c.75.749 1.643 1.123 2.68 1.123 1.07 0 1.981-.374 2.73-1.123a3.68 3.68 0 0 0 1.114-2.587h.01V.653h-7.658V3.61zM248.966 17.975a6.503 6.503 0 0 1 1.087-1.655c.46-.518 1.07-.934 1.828-1.246.757-.313 1.614-.47 2.569-.47 1.004 0 1.902.16 2.693.481.79.322 1.411.745 1.865 1.273a6.425 6.425 0 0 1 1.05 1.654 5.7 5.7 0 0 1 .444 1.802h-12.03c.065-.642.23-1.255.494-1.84m-.445 6.285h18.157v-1.507c0-3.983-1.124-7.213-3.372-9.69-2.248-2.479-5.2-3.718-8.856-3.718-2.405 0-4.579.573-6.522 1.717-1.944 1.144-3.45 2.687-4.521 4.63-1.07 1.942-1.605 4.09-1.605 6.444 0 3.852 1.23 6.96 3.693 9.321 2.382 2.287 5.383 3.456 8.992 3.529V29.68c-1.505-.157-2.763-.652-3.767-1.495-1.236-1.037-1.969-2.346-2.2-3.926M266.678 35h39.772v-5.42h-39.772z" mask="url(#b)"/>
        </g>
    </g>
</svg>
