<svg xmlns="http://www.w3.org/2000/svg" xmlns:xlink="http://www.w3.org/1999/xlink" width="305" height="36" viewBox="0 0 305 36">
    <defs>
        <path id="a" d="M.256.656h22.8v33.905H.256V.656z"/>
        <path id="c" d="M.336 26.182h24.616V.393H.336v25.789z"/>
        <path id="e" d="M16.45 31.91H.252V.013H16.45z"/>
        <path id="g" d="M0 35.182h304.454V.656H0z"/>
    </defs>
    <g fill="none" fill-rule="evenodd">
        <path fill="#FFF" d="M18.996.818L7.142 15.91V.82H0v33.905h7.142V24.298l2.602-3.201 10.16 13.627h8.811L14.481 16.728 27.808.818z"/>
        <g transform="translate(0 .162)">
            <g transform="translate(31.552)">
                <mask id="b" fill="#fff">
                    <use xlink:href="#a"/>
                </mask>
                <path fill="#FFF" d="M15.15 9.393c-1.838 0-3.494.368-4.97 1.105-1.477.736-2.657 1.625-3.543 2.668V.656H.257V34.56h6.38v-16.58c.59-.795 1.37-1.465 2.337-2.01.968-.547 2.034-.82 3.198-.82 1.46 0 2.575.34 3.346 1.018.771.679 1.157 1.829 1.157 3.45V34.56h6.38V17.137c0-2.449-.662-4.352-1.988-5.709-1.326-1.357-3.298-2.035-5.918-2.035" mask="url(#b)"/>
            </g>
            <g transform="translate(59.058 9)">
                <mask id="d" fill="#fff">
                    <use xlink:href="#c"/>
                </mask>
                <path fill="#FFF" d="M18.571 17.644c-.524.81-1.3 1.477-2.331 1.997-1.031.522-2.079.782-3.142.782-1.833 0-3.322-.661-4.467-1.985-1.145-1.324-1.718-3.053-1.718-5.188 0-2.117.573-3.83 1.718-5.137 1.145-1.308 2.634-1.961 4.467-1.961 1.063 0 2.11.269 3.142.805 1.03.54 1.807 1.214 2.331 2.024v8.663zm0-13.478C16.624 1.65 14.13.393 11.085.393c-3.157 0-5.739 1.163-7.743 3.487C1.337 6.205.336 9.33.336 13.25c0 4.021 1.006 7.182 3.018 9.482 2.013 2.3 4.59 3.45 7.731 3.45 3.01 0 5.506-1.258 7.486-3.773v3.152h6.38V1.013h-6.38v3.153z" mask="url(#d)"/>
            </g>
            <path fill="#FFF" d="M105.264 9.393c-1.816 0-3.465.368-4.945 1.105-1.48.736-2.663 1.625-3.547 2.668v-3.153h-6.38v24.548h6.38v-16.58a7.763 7.763 0 0 1 2.357-2.024c.948-.536 2.004-.806 3.166-.806 1.44 0 2.548.356 3.325 1.067.777.712 1.166 1.879 1.166 3.5v14.843h6.382V17.236c0-2.465-.668-4.389-2-5.77-1.334-1.381-3.302-2.073-5.904-2.073"/>
            <g transform="translate(116.499 3.273)">
                <mask id="f" fill="#fff">
                    <use xlink:href="#e"/>
                </mask>
                <path fill="#FFF" d="M14.192 25.927c-.425.15-.867.223-1.325.223-.688 0-1.227-.256-1.62-.769s-.59-1.166-.59-1.96V12.375h4.934V6.741h-4.933V.014H4.277v6.727H.252v5.634h4.025v12.758c0 2.218.585 3.901 1.755 5.051 1.17 1.15 2.867 1.726 5.092 1.726 2.389 0 4.164-.53 5.326-1.59l-1.35-4.939c-.18.215-.483.397-.908.546" mask="url(#f)"/>
            </g>
            <path fill="#FFF" d="M142.84 13.315v-3.302h-6.382v24.548h6.381V18.353c.524-.76 1.383-1.418 2.578-1.973 1.194-.554 2.33-.832 3.41-.832.738 0 1.327.05 1.767.15V9.392c-1.439 0-2.859.372-4.257 1.117-1.4.745-2.565 1.68-3.498 2.805"/>
            <mask id="h" fill="#fff">
                <use xlink:href="#g"/>
            </mask>
            <path fill="#FFF" d="M154.547 34.56h6.38V10.014h-6.38zM182.6 27.438c-1.13 1.324-2.61 1.986-4.442 1.986-1.048 0-2.09-.257-3.13-.77s-1.836-1.166-2.393-1.96V17.98c.557-.827 1.354-1.505 2.393-2.035 1.04-.53 2.082-.795 3.13-.795 1.832 0 3.313.654 4.442 1.961 1.13 1.308 1.693 3.02 1.693 5.138 0 2.135-.564 3.864-1.693 5.188m-2.479-18.045c-1.472 0-2.856.319-4.148.956-1.292.637-2.405 1.575-3.338 2.817V.656h-6.38v33.905h6.38v-3.152c1.98 2.515 4.475 3.773 7.486 3.773 3.151 0 5.73-1.15 7.738-3.45 2.008-2.3 3.012-5.46 3.012-9.482 0-3.922-1.004-7.045-3.012-9.37-2.008-2.324-4.587-3.487-7.738-3.487M212.1 26.644c-.622.794-1.415 1.455-2.38 1.985-.966.53-2.02.794-3.166.794-1.44 0-2.545-.347-3.314-1.042-.769-.696-1.153-1.854-1.153-3.475V10.013h-6.381v17.425c0 2.449.658 4.352 1.975 5.709 1.317 1.356 3.277 2.035 5.879 2.035 1.832 0 3.472-.357 4.92-1.068 1.448-.71 2.655-1.596 3.62-2.655v3.102h6.382V10.013H212.1v16.63zM236.005 29.2c-.425.15-.867.223-1.325.223-.688 0-1.227-.256-1.62-.769s-.59-1.167-.59-1.96V15.648h4.934v-5.635h-4.933V3.287h-6.381v6.726h-4.025v5.635h4.025v12.757c0 2.218.585 3.902 1.755 5.052 1.17 1.15 2.867 1.725 5.092 1.725 2.389 0 4.164-.53 5.326-1.589l-1.35-4.939c-.18.215-.483.397-.908.546M153.933 3.628h.01a3.718 3.718 0 0 0 1.106 2.6c.745.754 1.633 1.13 2.664 1.13 1.063 0 1.967-.376 2.711-1.13a3.72 3.72 0 0 0 1.107-2.6h.01V.656h-7.608v2.972zM247.344 18.068a6.559 6.559 0 0 1 1.08-1.663c.458-.522 1.063-.94 1.816-1.253.752-.314 1.603-.473 2.552-.473.998 0 1.89.162 2.676.484.785.324 1.402.75 1.852 1.28a6.47 6.47 0 0 1 1.043 1.662c.245.58.393 1.183.442 1.812h-11.952a5.993 5.993 0 0 1 .49-1.85m-.441 6.318h18.039v-1.514c0-4.005-1.117-7.252-3.35-9.742-2.233-2.491-5.166-3.736-8.799-3.736-2.389 0-4.549.576-6.48 1.725a12.028 12.028 0 0 0-4.49 4.653c-1.065 1.953-1.595 4.113-1.595 6.479 0 3.872 1.222 6.996 3.669 9.37 2.366 2.298 5.348 3.473 8.933 3.547v-5.333c-1.495-.158-2.745-.655-3.743-1.503-1.227-1.042-1.955-2.358-2.184-3.946M264.94 35.182h39.513v-5.45h-39.512z" mask="url(#h)"/>
        </g>
    </g>
</svg>
